<?xml version="1.0" encoding="UTF-8"?>
<svg id="Layer_2" data-name="Layer 2" xmlns="http://www.w3.org/2000/svg" viewBox="0 0 86.51 26.89">
  <defs>
    <style>
      .cls-1 {
        fill: #264f26;
      }
    </style>
  </defs>
  <g id="Layer_1-2" data-name="Layer 1">
    <g>
      <path class="cls-1" d="m6.05.22v2.7h-3.27v1.27h3.2v2.7h-3.2v3.08H0V.22h6.05Z"/>
      <path class="cls-1" d="m9.95.22v7.04h3.2v2.7h-5.98V.22h2.78Z"/>
      <path class="cls-1" d="m13.78,6.71V.22h2.78v6.18c0,.72.39,1.09,1.18,1.09s1.18-.36,1.18-1.09V.22h2.78v6.49c0,1.04-.37,1.88-1.1,2.52-.73.64-1.69.96-2.87.96s-2.13-.32-2.87-.96c-.73-.64-1.1-1.48-1.1-2.52Z"/>
      <path class="cls-1" d="m22.96,9.96V.22h2.78v9.74h-2.78Z"/>
      <path class="cls-1" d="m27.14.22h4.04c1.34,0,2.46.47,3.37,1.41.91.94,1.36,2.09,1.36,3.47s-.45,2.54-1.36,3.48c-.9.93-2.02,1.39-3.37,1.39h-4.04V.22Zm2.92,7.04h1.11c.57,0,1.03-.2,1.4-.61.37-.4.55-.93.55-1.57s-.18-1.16-.55-1.57c-.37-.4-.83-.61-1.4-.61h-1.11v4.34Z"/>
      <path class="cls-1" d="m57.24,10.19c-1.05,0-1.93-.22-2.63-.65-.71-.44-1.18-1.03-1.43-1.79l2.38-1.38c.32.83.91,1.24,1.75,1.24.63,0,.95-.17.95-.5,0-.2-.11-.35-.33-.44-.11-.05-.23-.09-.35-.13-.03,0-.2-.06-.5-.15l-.54-.15c-1.94-.58-2.91-1.63-2.91-3.13,0-.89.32-1.63.96-2.21.66-.58,1.51-.88,2.55-.88.83,0,1.58.2,2.23.59.65.39,1.13.95,1.43,1.68l-2.31,1.35c-.27-.69-.71-1.03-1.34-1.03-.23,0-.41.05-.54.15-.13.1-.2.22-.2.37,0,.2.11.36.32.47.2.1.63.25,1.27.43.86.26,1.55.57,2.07.93.65.45.97,1.16.97,2.13s-.34,1.75-1.02,2.3c-.68.55-1.61.82-2.78.82Z"/>
      <path class="cls-1" d="m64.59,6.32v1.09h3.62v2.56h-6.4V.22h6.33v2.53h-3.55v1.06h3.2v2.5h-3.2Z"/>
      <path class="cls-1" d="m77.32,9.95h-2.98l-1.54-3.06h-.7v3.06h-2.78V.21h3.9c1.06,0,1.94.32,2.64.95.7.62,1.04,1.45,1.04,2.48,0,.58-.13,1.09-.4,1.56-.26.46-.63.84-1.11,1.13l1.92,3.63Zm-4.16-7.18h-1.06v1.81h1.06c.3,0,.53-.07.7-.22.17-.16.26-.38.26-.67s-.09-.51-.26-.68c-.17-.16-.41-.24-.7-.24Z"/>
      <path class="cls-1" d="m83.41,9.96h-3.12L77.19.22h3.06l1.6,6.19,1.6-6.19h3.06l-3.1,9.74Z"/>
      <path class="cls-1" d="m7.38,16.92h2.78v9.74h-2.78v-4.75l-2.17,3.65h-.25l-2.17-3.65v4.75H0v-9.74h2.78l2.3,3.97,2.3-3.97Z"/>
      <path class="cls-1" d="m14.33,23.02v1.09h3.62v2.56h-6.4v-9.74h6.33v2.53h-3.55v1.06h3.2v2.5h-3.2Z"/>
      <path class="cls-1" d="m18.51,16.92h7.38v2.7h-2.3v7.04h-2.78v-7.04h-2.3v-2.7Z"/>
      <path class="cls-1" d="m34.72,26.65h-2.98l-1.54-3.06h-.7v3.06h-2.78v-9.74h3.9c1.06,0,1.94.32,2.64.95.7.62,1.04,1.45,1.04,2.48,0,.58-.13,1.09-.4,1.56-.26.46-.63.84-1.11,1.13l1.92,3.63Zm-4.16-7.18h-1.06v1.81h1.06c.3,0,.53-.07.7-.22.17-.16.26-.38.26-.67s-.09-.51-.26-.68c-.17-.16-.41-.24-.7-.24Z"/>
      <path class="cls-1" d="m43.75,25.42c-.99.97-2.21,1.46-3.66,1.46s-2.67-.49-3.67-1.46c-.99-.99-1.49-2.2-1.49-3.63s.5-2.64,1.49-3.62c.99-.98,2.22-1.48,3.67-1.48s2.68.49,3.66,1.48c1,.97,1.5,2.18,1.5,3.62s-.5,2.64-1.5,3.63Zm-5.37-1.93c.45.45,1.02.67,1.71.67s1.25-.22,1.7-.67.68-1.02.68-1.7-.23-1.24-.68-1.68c-.45-.45-1.01-.68-1.7-.68s-1.26.23-1.71.68-.67,1.01-.67,1.68.22,1.23.67,1.7Z"/>
      <path class="cls-1" d="m49.08,16.92v7.04h3.2v2.7h-5.98v-9.74h2.78Z"/>
      <path class="cls-1" d="m61.17,25.42c-.99.97-2.21,1.46-3.66,1.46s-2.67-.49-3.67-1.46c-.99-.99-1.49-2.2-1.49-3.63s.5-2.64,1.49-3.62c.99-.98,2.22-1.48,3.67-1.48s2.68.49,3.66,1.48c1,.97,1.5,2.18,1.5,3.62s-.5,2.64-1.5,3.63Zm-5.37-1.93c.45.45,1.02.67,1.71.67s1.25-.22,1.7-.67.68-1.02.68-1.7-.23-1.24-.68-1.68c-.45-.45-1.01-.68-1.7-.68s-1.26.23-1.71.68-.67,1.01-.67,1.68.22,1.23.67,1.7Z"/>
      <path class="cls-1" d="m68.47,20.92h4.95v1.15c0,1.4-.45,2.55-1.35,3.45-.89.91-2.06,1.36-3.52,1.36s-2.76-.48-3.73-1.45c-.96-.98-1.45-2.19-1.45-3.63s.48-2.65,1.45-3.63c.96-.98,2.16-1.48,3.62-1.48.9,0,1.73.2,2.48.61.76.4,1.36.96,1.8,1.66l-2.37,1.35c-.39-.59-1.01-.89-1.86-.89-.7,0-1.26.22-1.7.67-.43.44-.64,1.01-.64,1.73,0,.68.2,1.26.6,1.75.41.49,1.02.74,1.85.74.96,0,1.61-.34,1.93-1.03h-2.07v-2.37Z"/>
      <path class="cls-1" d="m74.46,26.66v-9.74h2.78v9.74h-2.78Z"/>
      <path class="cls-1" d="m81.42,23.02v1.09h3.62v2.56h-6.4v-9.74h6.33v2.53h-3.55v1.06h3.2v2.5h-3.2Z"/>
    </g>
    <g>
      <rect class="cls-1" x="40.09" y="9.16" width="8.97" height=".56"/>
      <rect class="cls-1" x="40.09" y="8.07" width="8.97" height=".56"/>
      <rect class="cls-1" x="40.09" y="6.99" width="8.97" height=".56"/>
      <rect class="cls-1" x="40.09" y="5.9" width="8.97" height=".56"/>
      <rect class="cls-1" x="40.09" y="4.81" width="8.97" height=".56"/>
      <rect class="cls-1" x="40.09" y="3.72" width="8.97" height=".56"/>
      <rect class="cls-1" x="40.09" y="2.64" width="8.97" height=".56"/>
      <rect class="cls-1" x="40.09" y="1.55" width="8.97" height=".56"/>
      <rect class="cls-1" x="40.09" y=".46" width="8.97" height=".56"/>
    </g>
  </g>
</svg>