<?xml version="1.0" encoding="UTF-8"?>
<svg id="Layer_2" data-name="Layer 2" xmlns="http://www.w3.org/2000/svg" viewBox="0 0 1847.85 194.12">
  <defs>
    <style>
      .cls-1 {
        fill: #fff;
      }
    </style>
  </defs>
  <g id="Layer_2-2" data-name="Layer 2">
    <g>
      <path class="cls-1" d="m219.99,2.7h78.46v26.96h-48.8v52.57h38.28v26.96h-38.28v82.23h-29.66V2.7Z"/>
      <path class="cls-1" d="m374.58,181.37c-4.19-4.54-7.22-10.18-9.07-16.91h-23.11V2.7h-29.65v188.72h78.24c-6.6-2-12.06-5.34-16.4-10.04Z"/>
      <path class="cls-1" d="m403.16,181.85c-7.55-8.18-11.32-19.91-11.32-35.19V2.7h29.66v146.13c0,6.47,1.3,11.15,3.91,14.02,2.6,2.88,6.34,4.31,11.19,4.31s8.58-1.44,11.19-4.31c2.6-2.87,3.91-7.55,3.91-14.02V2.7h28.58v143.97c0,15.28-3.77,27.01-11.32,35.19-7.55,8.18-18.52,12.27-32.89,12.27s-25.34-4.09-32.89-12.27Z"/>
      <path class="cls-1" d="m501.3,2.7h29.66v188.72h-29.66V2.7Z"/>
      <path class="cls-1" d="m553.06,2.7h45.29c14.74,0,25.79,3.96,33.16,11.86,7.37,7.91,11.05,19.5,11.05,34.78v95.44c0,15.28-3.68,26.87-11.05,34.78-7.37,7.91-18.43,11.86-33.16,11.86h-45.29V2.7Zm44.76,161.77c4.85,0,8.58-1.44,11.19-4.31,2.6-2.87,3.91-7.55,3.91-14.02V47.99c0-6.47-1.31-11.14-3.91-14.02-2.61-2.87-6.33-4.31-11.19-4.31h-15.1v134.8h15.1Z"/>
      <path class="cls-1" d="m705.65,2.7h45.29c14.74,0,25.79,3.96,33.16,11.86,7.37,7.91,11.05,19.5,11.05,34.78v95.44c0,15.28-3.68,26.87-11.05,34.78-7.37,7.91-18.43,11.86-33.16,11.86h-45.29V2.7Zm44.76,161.77c4.85,0,8.58-1.44,11.19-4.31,2.6-2.87,3.91-7.55,3.91-14.02V47.99c0-6.47-1.31-11.14-3.91-14.02-2.61-2.87-6.33-4.31-11.19-4.31h-15.1v134.8h15.1Z"/>
      <path class="cls-1" d="m815.11,2.7h80.88v26.96h-51.23v49.88h40.71v26.96h-40.71v57.97h51.23v26.96h-80.88V2.7Z"/>
      <path class="cls-1" d="m905.15,2.7h29.93l19.41,146.4h.54L974.44,2.7h27.23l-28.58,188.72h-39.36L905.15,2.7Z"/>
      <path class="cls-1" d="m1015.96,2.7h80.88v26.96h-51.23v49.88h40.71v26.96h-40.71v57.97h51.23v26.96h-80.88V2.7Z"/>
      <path class="cls-1" d="m1203.51,181.71c-7.73-8.26-11.59-19.95-11.59-35.05V47.45c0-15.1,3.86-26.78,11.59-35.05,7.72-8.27,18.87-12.4,33.43-12.4s25.7,4.14,33.43,12.4c7.73,8.27,11.59,19.95,11.59,35.05v99.21c0,15.1-3.87,26.78-11.59,35.05-7.73,8.27-18.87,12.4-33.43,12.4s-25.71-4.13-33.43-12.4Zm48.8-33.16V45.57c0-12.4-5.12-18.6-15.37-18.6s-15.37,6.2-15.37,18.6v102.99c0,12.4,5.12,18.6,15.37,18.6s15.37-6.2,15.37-18.6Z"/>
      <path class="cls-1" d="m1301.91,2.7h43.68c14.74,0,25.79,3.96,33.16,11.86,7.37,7.91,11.05,19.5,11.05,34.78v18.6c0,15.28-3.69,26.87-11.05,34.78-7.37,7.91-18.42,11.86-33.16,11.86h-14.02v76.84h-29.66V2.7Zm43.68,84.93c4.85,0,8.49-1.35,10.92-4.05s3.64-7.28,3.64-13.75v-22.38c0-6.47-1.21-11.05-3.64-13.75-2.43-2.7-6.07-4.05-10.92-4.05h-14.02v57.97h14.02Z"/>
      <path class="cls-1" d="m1405.97,2.7h42.33l18.87,135.07h.54l18.87-135.07h42.33v188.72h-28.04V48.53h-.54l-21.57,142.89h-24.8l-21.57-142.89h-.54v142.89h-25.88V2.7Z"/>
      <path class="cls-1" d="m1551.02,2.7h80.88v26.96h-51.23v49.88h40.71v26.96h-40.71v57.97h51.23v26.96h-80.88V2.7Z"/>
      <path class="cls-1" d="m1648.89,2.7h37.21l28.85,112.97h.54V2.7h26.42v188.72h-30.47l-35.59-137.77h-.54v137.77h-26.42V2.7Z"/>
      <path class="cls-1" d="m1787.19,29.66h-31V2.7h91.66v26.96h-31v161.76h-29.66V29.66Z"/>
      <path class="cls-1" d="m1175.77,181.38c-4.19-4.54-7.22-10.18-9.07-16.91h-23.11V2.7h-29.65v188.72h78.24c-6.6-2-12.06-5.34-16.4-10.04Z"/>
      <path class="cls-1" d="m170.03,152.04v34.28H0v-34.21s.06.03.09.04c1.01.57,1.97.91,2.72,1.57,1.66,1.43,3.19,3.04,4.77,4.58,6.88,6.64,15.46,6.71,22.42.14,1.26-1.19,2.38-2.53,3.62-3.72,4.32-4.2,10.16-4.22,14.48-.06,1.24,1.2,2.36,2.55,3.61,3.74,6.82,6.48,15.33,6.55,22.23.15,1.19-1.1,2.25-2.36,3.4-3.52,4.53-4.61,10.55-4.64,15.11-.09,1.02,1.01,1.97,2.12,2.99,3.13,7.08,6.93,15.69,7.03,22.85.23,1.26-1.18,2.35-2.56,3.6-3.75,4.22-4.01,10.09-3.98,14.29.06,1.24,1.2,2.38,2.52,3.63,3.71,7.02,6.72,15.59,6.67,22.63-.09,1.73-1.65,3.46-3.31,5.24-4.89.6-.52,1.39-.8,2.35-1.32Z"/>
      <path class="cls-1" d="m170.03,105.02v34.28H0v-34.21s.06.03.09.04c1.01.57,1.97.91,2.72,1.57,1.66,1.43,3.19,3.04,4.77,4.58,6.88,6.64,15.46,6.71,22.42.14,1.26-1.19,2.38-2.53,3.62-3.72,4.32-4.2,10.16-4.22,14.48-.06,1.24,1.2,2.36,2.55,3.61,3.74,6.82,6.48,15.33,6.55,22.23.15,1.19-1.1,2.25-2.36,3.4-3.52,4.53-4.61,10.55-4.64,15.11-.09,1.02,1.01,1.97,2.12,2.99,3.13,7.08,6.93,15.69,7.03,22.85.23,1.26-1.18,2.35-2.56,3.6-3.75,4.22-4.01,10.09-3.98,14.29.06,1.24,1.2,2.38,2.52,3.63,3.71,7.02,6.72,15.59,6.67,22.63-.09,1.73-1.65,3.46-3.31,5.24-4.89.6-.52,1.39-.8,2.35-1.32Z"/>
      <path class="cls-1" d="m170.03,57.99v34.28H0v-34.21s.06.03.09.04c1.01.57,1.97.91,2.72,1.57,1.66,1.43,3.19,3.04,4.77,4.58,6.88,6.64,15.46,6.71,22.42.14,1.26-1.19,2.38-2.53,3.62-3.72,4.32-4.2,10.16-4.22,14.48-.06,1.24,1.2,2.36,2.55,3.61,3.74,6.82,6.48,15.33,6.55,22.23.15,1.19-1.1,2.25-2.36,3.4-3.52,4.53-4.61,10.55-4.64,15.11-.09,1.02,1.01,1.97,2.12,2.99,3.13,7.08,6.93,15.69,7.03,22.85.23,1.26-1.18,2.35-2.56,3.6-3.75,4.22-4.01,10.09-3.98,14.29.06,1.24,1.2,2.38,2.52,3.63,3.71,7.02,6.72,15.59,6.67,22.63-.09,1.73-1.65,3.46-3.31,5.24-4.89.6-.52,1.39-.8,2.35-1.32Z"/>
      <path class="cls-1" d="m170.03,10.96v34.28H0V11.04s.06.03.09.04c1.01.57,1.97.91,2.72,1.57,1.66,1.43,3.19,3.04,4.77,4.58,6.88,6.64,15.46,6.71,22.42.14,1.26-1.19,2.38-2.53,3.62-3.72,4.32-4.2,10.16-4.22,14.48-.06,1.24,1.2,2.36,2.55,3.61,3.74,6.82,6.48,15.33,6.55,22.23.15,1.19-1.1,2.25-2.36,3.4-3.52,4.53-4.61,10.55-4.64,15.11-.09,1.02,1.01,1.97,2.12,2.99,3.13,7.08,6.93,15.69,7.03,22.85.23,1.26-1.18,2.35-2.56,3.6-3.75,4.22-4.01,10.09-3.98,14.29.06,1.24,1.2,2.38,2.52,3.63,3.71,7.02,6.72,15.59,6.67,22.63-.09,1.73-1.65,3.46-3.31,5.24-4.89.6-.52,1.39-.8,2.35-1.32Z"/>
    </g>
  </g>
</svg>