<?xml version="1.0" encoding="UTF-8"?>
<svg id="Layer_2" data-name="Layer 2" xmlns="http://www.w3.org/2000/svg" viewBox="0 0 1960.44 115.09">
  <defs>
    <style>
      .cls-1 {
        fill: #279b96;
      }

      .cls-2 {
        letter-spacing: -.03em;
      }

      .cls-3 {
        letter-spacing: 0em;
      }

      .cls-4 {
        letter-spacing: 0em;
      }

      .cls-5 {
        letter-spacing: 0em;
      }

      .cls-6 {
        fill: #f2f2f3;
        font-family: Gilroy-Medium, Gilroy;
        font-size: 82.82px;
        font-weight: 500;
      }

      .cls-7 {
        letter-spacing: -.03em;
      }
    </style>
  </defs>
  <g id="Layer_2-2" data-name="Layer 2">
    <text class="cls-6" transform="translate(412.98 70.4)"><tspan x="0" y="0">+</tspan><tspan class="cls-3" x="45.14" y="0">2</tspan><tspan x="87.96" y="0">0 de ani de înc</tspan><tspan class="cls-7" x="651.96" y="0">r</tspan><tspan class="cls-4" x="676.89" y="0">e</tspan><tspan x="725.09" y="0">de</tspan><tspan class="cls-7" x="825.8" y="0">r</tspan><tspan x="850.73" y="0">e </tspan><tspan class="cls-5" x="919.72" y="0">ș</tspan><tspan x="957.24" y="0">i per</tspan><tspan class="cls-7" x="1124.04" y="0">f</tspan><tspan x="1148.55" y="0">orman</tspan><tspan class="cls-2" x="1395.03" y="0">ț</tspan><tspan x="1424.02" y="0">ă</tspan></text>
    <g>
      <g>
        <path class="cls-1" d="m263.3,74.05c-5.72-3.2-9.86-5.22-13.67-7.73-4.16-2.74-7.88-2.49-11.85.22-2.24,1.53-4.66,2.88-7.16,3.93-1.56.65-3.44.56-5.18.8-.16-1.58-.39-3.15-.44-4.73-.03-.82.17-1.68.42-2.47,3.11-9.66-.45-16.91-8.55-22.43-1.42-.97-3.13-1.53-4.7-2.28.46-.91.93-1.82,1.39-2.73,4.54-.83,9.05-2.03,13.63-2.38,5.52-.43,8.68-2.83,10.33-8.03,1.27-4.02,3.42-7.78,5.18-11.66.57-.05,1.13-.11,1.7-.16,2.06,3.71,4.48,7.28,6.1,11.17,2.22,5.33,5.2,8.54,11.72,8.56,3.85,0,7.7,2.02,11.55,3.13-2.36,2.9-4.27,6.38-7.19,8.57-4.96,3.73-6.84,7.68-5,13.81,1.25,4.16,1.11,8.72,1.73,14.42Z"/>
        <path class="cls-1" d="m48.78,72.51c-4.09-2.04-8.39-3.77-12.22-6.2-3.83-2.43-7.26-2.39-11.02-.23-4.05,2.33-8.17,4.53-12.27,6.79-.54-.3-1.07-.59-1.61-.89.55-4.85.68-9.79,1.78-14.52,1.01-4.35-.19-7.46-3.27-10.39-3.12-2.97-6.03-6.16-10.16-10.44,6.49-1.09,11.4-2.23,16.37-2.63,3.39-.27,5.2-1.55,6.54-4.54,2.22-4.96,4.89-9.73,8.07-15.95,2.16,4.01,4.19,6.45,4.82,9.2,2.14,9.43,9.11,11.6,17.52,12.21,2.47.18,4.89.95,7.34,1.46.28.52.56,1.04.83,1.56-3.66,3.53-7.11,7.32-11.06,10.5-2.61,2.1-3.46,3.79-2.56,7.2,1.38,5.22,1.75,10.7,2.55,16.06-.55.28-1.09.55-1.64.83Z"/>
        <path class="cls-1" d="m102.59,13.69c2.21,4.37,4.33,7.62,5.53,11.16,2.54,7.48,8.29,9.69,15.48,10.02.51.02,1.08-.11,1.54.06,2.15.77,4.27,1.62,6.4,2.44-1.19,1.74-1.99,4.09-3.64,5.11-9.34,5.76-10.79,13.58-7.24,23.16.75,2.04.52,4.43.89,8.25-6.08-3.32-10.66-6.13-15.52-8.33-2.03-.92-4.93-1.29-6.98-.61-3.85,1.28-7.36,3.51-11.03,5.32-1.59.78-3.21,1.5-6.06,2.82,1.27-6.64,2.59-11.94,3.15-17.32.22-2.08-.77-4.75-2.14-6.42-3.27-3.98-7.1-7.53-11.68-12.28,5.72-1.15,10.74-2.51,15.85-3.07,3.12-.34,5.06-1.22,6.26-4.11,1.55-3.72,3.34-7.36,5.23-10.93.81-1.55,2.12-2.85,3.97-5.26Z"/>
        <path class="cls-1" d="m345.8,36.61c-3.63,3.64-6.29,6.58-9.24,9.2-4.22,3.77-6.71,7.66-4.07,13.56,1.19,2.66,1.09,5.91,1.33,8.91.23,2.88-1.31,3.66-3.87,2.44-3.39-1.62-6.84-3.17-10.06-5.08-3.84-2.28-7.19-2.1-10.98.32-3.94,2.51-8.31,4.37-13.45,7.02.51-5.55.28-10,1.45-14.07,1.83-6.35-1.21-10.15-5.49-14.02-2.22-2.01-3.73-4.77-5.56-7.19,2.83-.94,5.66-2.69,8.48-2.68,9.31.04,13.18-5.45,15.87-13.03.92-2.6,3.25-4.72,4.94-7.06,1.67,2.43,4.21,4.67,4.86,7.34,2.12,8.71,7.12,12.99,16.42,12.61,2.62-.11,5.28.94,9.38,1.74Z"/>
      </g>
      <path class="cls-1" d="m204.2,36.6c-4.21,4.17-7.15,7.34-10.36,10.22-3.77,3.38-5.33,6.95-3.58,12.08,1.4,4.1,1.7,8.57,2.48,12.87-.46.32-.93.63-1.39.95-3.94-1.81-8.01-3.39-11.78-5.48-5.27-2.92-9.98-3.3-15.24.39-2.69,1.88-6.48,2.24-9.78,3.28.16-3.24-.2-6.6.58-9.69,1.8-7.1.19-12.7-5.8-17.25-2.27-1.73-3.98-4.16-7.01-7.41,6.22-1.1,10.68-2.48,15.15-2.51,4.63-.03,6.62-1.83,8.11-5.88,1.74-4.72,4.41-9.11,6.67-13.64.62.09,1.24.17,1.87.26,2.03,4.32,4.61,8.49,5.94,13.01,1.09,3.73,3.16,5.29,6.65,5.87,5.29.88,10.58,1.77,17.5,2.93Z"/>
    </g>
  </g>
</svg>