<?xml version="1.0" encoding="UTF-8"?>
<svg id="Layer_2" data-name="Layer 2" xmlns="http://www.w3.org/2000/svg" viewBox="0 0 62.09 28.79">
  <defs>
    <style>
      .cls-1 {
        fill: #303030;
      }
    </style>
  </defs>
  <g id="Layer_1-2" data-name="Layer 1">
    <g>
      <path class="cls-1" d="m19.48,3.63h-2.71v-.83c0-.39-.03-.63-.1-.74-.07-.11-.18-.16-.35-.16-.18,0-.31.07-.4.21s-.13.36-.13.65c0,.37.05.66.15.84.1.19.37.42.82.69,1.3.77,2.11,1.4,2.45,1.9.34.49.51,1.29.51,2.39,0,.8-.09,1.39-.28,1.76-.19.38-.55.7-1.08.95-.54.26-1.16.38-1.87.38-.78,0-1.45-.15-2-.44-.55-.3-.91-.67-1.08-1.13-.17-.46-.26-1.1-.26-1.94v-.73h2.71v1.36c0,.42.04.69.11.81s.21.18.4.18.34-.08.43-.23c.09-.15.14-.38.14-.68,0-.66-.09-1.09-.27-1.29-.18-.2-.64-.54-1.36-1.02-.72-.48-1.2-.83-1.44-1.04s-.43-.52-.58-.9c-.15-.38-.23-.87-.23-1.47,0-.86.11-1.49.33-1.88.22-.4.57-.71,1.06-.93.49-.22,1.08-.34,1.77-.34.76,0,1.4.12,1.93.37s.89.55,1.06.92c.17.37.26,1,.26,1.89v.44Z"/>
      <path class="cls-1" d="m26.51.24v2.24h-1.73v8.96h-2.91V2.48h-1.72V.24h6.37Z"/>
      <path class="cls-1" d="m27.17.24h2.06c1.38,0,2.31.05,2.79.16.49.11.88.38,1.19.81.31.44.46,1.13.46,2.09,0,.87-.11,1.46-.33,1.76s-.64.48-1.28.54c.58.14.96.33,1.16.57s.32.46.37.66c.05.2.07.75.07,1.66v2.96h-2.71v-3.72c0-.6-.05-.97-.14-1.11s-.34-.21-.74-.21v5.05h-2.91V.24Zm2.91,1.92v2.49c.33,0,.56-.04.69-.13.13-.09.2-.38.2-.88v-.62c0-.35-.06-.59-.19-.7-.13-.11-.36-.17-.7-.17Z"/>
      <path class="cls-1" d="m41.46,6.8c0,1.13-.03,1.92-.08,2.39s-.22.9-.5,1.28c-.28.39-.66.69-1.13.89-.48.21-1.03.31-1.66.31s-1.14-.1-1.62-.29c-.48-.2-.86-.49-1.15-.88-.29-.39-.46-.82-.52-1.28-.06-.46-.08-1.27-.08-2.42v-1.92c0-1.13.03-1.92.08-2.39.05-.47.22-.9.5-1.28.28-.39.66-.69,1.13-.89.48-.21,1.03-.31,1.66-.31.6,0,1.14.1,1.62.29.48.2.86.49,1.15.88s.46.82.52,1.28.08,1.27.08,2.42v1.92Zm-2.91-3.68c0-.52-.03-.85-.09-1-.06-.15-.18-.22-.36-.22-.15,0-.27.06-.35.18-.08.12-.12.46-.12,1.04v5.23c0,.65.03,1.05.08,1.2.05.15.18.23.37.23s.33-.09.38-.26c.06-.18.08-.59.08-1.25V3.11Z"/>
      <path class="cls-1" d="m45.46.24v8.96h1.77v2.24h-4.69V.24h2.91Z"/>
      <path class="cls-1" d="m53,.24v2.24l-2.17,6.72h2.17v2.24h-5.37v-1.63l2.24-7.34h-1.98V.24h5.11Z"/>
      <path class="cls-1" d="m13.31,17.24h2.18c1.41,0,2.36.06,2.85.19.5.13.87.34,1.13.64.26.3.42.62.48.99s.1,1.07.1,2.13v3.92c0,1.01-.05,1.68-.14,2.02-.09.34-.26.6-.49.8-.24.19-.53.33-.87.4-.35.08-.87.11-1.56.11h-3.67v-11.2Zm2.91,1.92v7.37c.42,0,.68-.08.78-.25.1-.17.15-.63.15-1.37v-4.35c0-.51-.02-.83-.05-.98s-.11-.25-.22-.31c-.12-.07-.33-.1-.65-.1Z"/>
      <path class="cls-1" d="m21.15,17.24h2.06c1.38,0,2.31.05,2.79.16.49.11.88.38,1.19.81.31.44.46,1.13.46,2.09,0,.87-.11,1.46-.33,1.76s-.64.48-1.28.54c.58.14.96.33,1.16.57s.32.46.37.66c.05.2.07.75.07,1.66v2.96h-2.71v-3.72c0-.6-.05-.97-.14-1.11s-.34-.21-.74-.21v5.05h-2.91v-11.2Zm2.91,1.92v2.49c.33,0,.56-.04.69-.13.13-.09.2-.38.2-.88v-.62c0-.35-.06-.59-.19-.7-.13-.11-.36-.17-.7-.17Z"/>
      <path class="cls-1" d="m31.69,17.24v11.2h-2.91v-11.2h2.91Z"/>
      <path class="cls-1" d="m35.77,17.24v8.96h1.77v2.24h-4.69v-11.2h2.91Z"/>
      <path class="cls-1" d="m41.17,17.24v8.96h1.77v2.24h-4.68v-11.2h2.91Z"/>
      <path class="cls-1" d="m46.56,17.24v11.2h-2.91v-11.2h2.91Z"/>
      <path class="cls-1" d="m54.23,17.24v11.2h-2.55l-1.52-5.09v5.09h-2.44v-11.2h2.44l1.63,5.04v-5.04h2.44Z"/>
      <path class="cls-1" d="m62.09,21.37h-2.91v-1.02c0-.64-.03-1.04-.08-1.2-.05-.16-.19-.24-.39-.24-.18,0-.3.07-.37.21-.06.14-.1.49-.1,1.07v5.38c0,.5.03.83.1.99s.19.24.39.24c.21,0,.36-.09.43-.27.08-.18.11-.53.11-1.05v-1.33h-.59v-1.7h3.41v6.01h-1.83l-.27-.8c-.2.35-.45.61-.75.78-.3.17-.66.26-1.07.26-.49,0-.95-.12-1.38-.36-.43-.24-.75-.53-.97-.88s-.36-.72-.42-1.1c-.05-.39-.08-.96-.08-1.73v-3.33c0-1.07.06-1.85.17-2.33s.45-.93.99-1.33,1.25-.61,2.12-.61,1.56.18,2.12.53.93.77,1.1,1.25c.17.48.26,1.18.26,2.1v.48Z"/>
    </g>
    <g>
      <polygon class="cls-1" points="9.68 9.91 0 .23 9.68 .23 9.68 9.91"/>
      <polygon class="cls-1" points="9.68 19.42 0 9.74 9.68 9.74 9.68 19.42"/>
      <polygon class="cls-1" points="9.68 28.79 0 19.11 9.68 19.11 9.68 28.79"/>
    </g>
  </g>
</svg>